<mxfile host="Electron" modified="2023-08-09T03:22:46.777Z" agent="Mozilla/5.0 (X11; Linux x86_64) AppleWebKit/537.36 (KHTML, like Gecko) draw.io/21.6.5 Chrome/114.0.5735.243 Electron/25.3.1 Safari/537.36" etag="Lea4XZq31rks44BhfBKr" version="21.6.5" type="device">
  <diagram name="第 1 页" id="IJC8CHaW8OvVdunV08Oi">
    <mxGraphModel dx="1518" dy="338" grid="1" gridSize="10" guides="1" tooltips="1" connect="1" arrows="1" fold="1" page="0" pageScale="1" pageWidth="827" pageHeight="1169" math="0" shadow="0">
      <root>
        <mxCell id="0" />
        <mxCell id="1" parent="0" />
        <mxCell id="XkeC98np7HwrWF6QXYlz-24" value="" style="rounded=0;whiteSpace=wrap;html=1;fontSize=16;fillColor=none;dashed=1;" vertex="1" parent="1">
          <mxGeometry x="370" y="637.5" width="370" height="55" as="geometry" />
        </mxCell>
        <mxCell id="XkeC98np7HwrWF6QXYlz-8" value="" style="edgeStyle=none;curved=1;rounded=0;orthogonalLoop=1;jettySize=auto;html=1;fontSize=12;startSize=8;endSize=8;" edge="1" parent="1" source="XkeC98np7HwrWF6QXYlz-6" target="XkeC98np7HwrWF6QXYlz-7">
          <mxGeometry relative="1" as="geometry" />
        </mxCell>
        <mxCell id="XkeC98np7HwrWF6QXYlz-11" value="" style="edgeStyle=none;curved=1;rounded=0;orthogonalLoop=1;jettySize=auto;html=1;fontSize=12;startSize=8;endSize=8;" edge="1" parent="1" source="XkeC98np7HwrWF6QXYlz-6" target="XkeC98np7HwrWF6QXYlz-10">
          <mxGeometry relative="1" as="geometry" />
        </mxCell>
        <mxCell id="XkeC98np7HwrWF6QXYlz-6" value="苯丙氨酸" style="text;html=1;align=center;verticalAlign=middle;resizable=0;points=[];autosize=1;strokeColor=#82b366;fillColor=#d5e8d4;fontSize=16;" vertex="1" parent="1">
          <mxGeometry x="80" y="560" width="90" height="30" as="geometry" />
        </mxCell>
        <mxCell id="XkeC98np7HwrWF6QXYlz-13" value="" style="edgeStyle=none;curved=1;rounded=0;orthogonalLoop=1;jettySize=auto;html=1;fontSize=12;startSize=8;endSize=8;dashed=1;endArrow=classic;endFill=1;" edge="1" parent="1" source="XkeC98np7HwrWF6QXYlz-7" target="XkeC98np7HwrWF6QXYlz-12">
          <mxGeometry relative="1" as="geometry" />
        </mxCell>
        <mxCell id="XkeC98np7HwrWF6QXYlz-7" value="苯丙酮酸" style="text;html=1;align=center;verticalAlign=middle;resizable=0;points=[];autosize=1;strokeColor=#666666;fillColor=#f5f5f5;fontSize=16;fontColor=#333333;" vertex="1" parent="1">
          <mxGeometry x="290" y="560" width="90" height="30" as="geometry" />
        </mxCell>
        <mxCell id="XkeC98np7HwrWF6QXYlz-9" value="X 转氨酶" style="text;html=1;align=center;verticalAlign=middle;resizable=0;points=[];autosize=1;strokeColor=#d79b00;fillColor=#ffe6cc;fontSize=16;rounded=1;fontStyle=2" vertex="1" parent="1">
          <mxGeometry x="180" y="540" width="90" height="30" as="geometry" />
        </mxCell>
        <mxCell id="XkeC98np7HwrWF6QXYlz-15" value="" style="edgeStyle=none;curved=1;rounded=0;orthogonalLoop=1;jettySize=auto;html=1;fontSize=12;startSize=8;endSize=8;" edge="1" parent="1" source="XkeC98np7HwrWF6QXYlz-10" target="XkeC98np7HwrWF6QXYlz-14">
          <mxGeometry relative="1" as="geometry" />
        </mxCell>
        <mxCell id="XkeC98np7HwrWF6QXYlz-26" style="edgeStyle=entityRelationEdgeStyle;rounded=0;orthogonalLoop=1;jettySize=auto;html=1;fontSize=12;startSize=8;endSize=8;" edge="1" parent="1" source="XkeC98np7HwrWF6QXYlz-10" target="XkeC98np7HwrWF6QXYlz-25">
          <mxGeometry relative="1" as="geometry" />
        </mxCell>
        <mxCell id="XkeC98np7HwrWF6QXYlz-34" value="" style="edgeStyle=none;curved=1;rounded=0;orthogonalLoop=1;jettySize=auto;html=1;fontSize=12;startSize=8;endSize=8;" edge="1" parent="1" source="XkeC98np7HwrWF6QXYlz-10" target="XkeC98np7HwrWF6QXYlz-33">
          <mxGeometry relative="1" as="geometry" />
        </mxCell>
        <mxCell id="XkeC98np7HwrWF6QXYlz-10" value="酪氨酸" style="text;html=1;align=center;verticalAlign=middle;resizable=0;points=[];autosize=1;strokeColor=#82b366;fillColor=#d5e8d4;fontSize=16;" vertex="1" parent="1">
          <mxGeometry x="90" y="650" width="70" height="30" as="geometry" />
        </mxCell>
        <mxCell id="XkeC98np7HwrWF6QXYlz-12" value="苯丙酮尿症" style="text;html=1;align=center;verticalAlign=middle;resizable=0;points=[];autosize=1;fontSize=16;fillColor=#f8cecc;strokeColor=#b85450;" vertex="1" parent="1">
          <mxGeometry x="285" y="480" width="100" height="30" as="geometry" />
        </mxCell>
        <mxCell id="XkeC98np7HwrWF6QXYlz-19" value="" style="edgeStyle=none;curved=1;rounded=0;orthogonalLoop=1;jettySize=auto;html=1;fontSize=12;startSize=8;endSize=8;" edge="1" parent="1" source="XkeC98np7HwrWF6QXYlz-14" target="XkeC98np7HwrWF6QXYlz-18">
          <mxGeometry relative="1" as="geometry" />
        </mxCell>
        <mxCell id="XkeC98np7HwrWF6QXYlz-14" value="多巴" style="text;html=1;align=center;verticalAlign=middle;resizable=0;points=[];autosize=1;fontSize=16;" vertex="1" parent="1">
          <mxGeometry x="305" y="650" width="60" height="30" as="geometry" />
        </mxCell>
        <mxCell id="XkeC98np7HwrWF6QXYlz-16" value="X 羟化酶" style="text;html=1;align=center;verticalAlign=middle;resizable=0;points=[];autosize=1;strokeColor=#d79b00;fillColor=#ffe6cc;fontSize=16;rounded=1;" vertex="1" parent="1">
          <mxGeometry x="180" y="630" width="90" height="30" as="geometry" />
        </mxCell>
        <mxCell id="XkeC98np7HwrWF6QXYlz-17" value="X 羟化酶" style="text;html=1;align=center;verticalAlign=middle;resizable=0;points=[];autosize=1;strokeColor=#d79b00;fillColor=#ffe6cc;fontSize=16;rounded=1;" vertex="1" parent="1">
          <mxGeometry x="30" y="610" width="90" height="30" as="geometry" />
        </mxCell>
        <mxCell id="XkeC98np7HwrWF6QXYlz-21" value="" style="edgeStyle=none;curved=1;rounded=0;orthogonalLoop=1;jettySize=auto;html=1;fontSize=12;startSize=8;endSize=8;" edge="1" parent="1" source="XkeC98np7HwrWF6QXYlz-18" target="XkeC98np7HwrWF6QXYlz-20">
          <mxGeometry relative="1" as="geometry" />
        </mxCell>
        <mxCell id="XkeC98np7HwrWF6QXYlz-51" style="edgeStyle=orthogonalEdgeStyle;rounded=0;orthogonalLoop=1;jettySize=auto;html=1;fontSize=12;startSize=8;endSize=8;dashed=1;" edge="1" parent="1" source="XkeC98np7HwrWF6QXYlz-18" target="XkeC98np7HwrWF6QXYlz-57">
          <mxGeometry relative="1" as="geometry">
            <mxPoint x="530" y="570" as="targetPoint" />
            <Array as="points">
              <mxPoint x="425" y="575" />
            </Array>
          </mxGeometry>
        </mxCell>
        <mxCell id="XkeC98np7HwrWF6QXYlz-58" value="脑内生成减少" style="edgeLabel;html=1;align=center;verticalAlign=middle;resizable=0;points=[];fontSize=16;" vertex="1" connectable="0" parent="XkeC98np7HwrWF6QXYlz-51">
          <mxGeometry x="-0.1013" relative="1" as="geometry">
            <mxPoint y="32" as="offset" />
          </mxGeometry>
        </mxCell>
        <mxCell id="XkeC98np7HwrWF6QXYlz-18" value="多巴胺" style="text;html=1;align=center;verticalAlign=middle;resizable=0;points=[];autosize=1;fontSize=16;" vertex="1" parent="1">
          <mxGeometry x="390" y="650" width="70" height="30" as="geometry" />
        </mxCell>
        <mxCell id="XkeC98np7HwrWF6QXYlz-23" value="" style="edgeStyle=none;curved=1;rounded=0;orthogonalLoop=1;jettySize=auto;html=1;fontSize=12;startSize=8;endSize=8;" edge="1" parent="1" source="XkeC98np7HwrWF6QXYlz-20" target="XkeC98np7HwrWF6QXYlz-22">
          <mxGeometry relative="1" as="geometry" />
        </mxCell>
        <mxCell id="XkeC98np7HwrWF6QXYlz-20" value="去甲肾上腺素" style="text;html=1;align=center;verticalAlign=middle;resizable=0;points=[];autosize=1;fontSize=16;" vertex="1" parent="1">
          <mxGeometry x="490" y="650" width="120" height="30" as="geometry" />
        </mxCell>
        <mxCell id="XkeC98np7HwrWF6QXYlz-22" value="肾上腺素" style="text;html=1;align=center;verticalAlign=middle;resizable=0;points=[];autosize=1;fontSize=16;" vertex="1" parent="1">
          <mxGeometry x="650" y="650" width="90" height="30" as="geometry" />
        </mxCell>
        <mxCell id="XkeC98np7HwrWF6QXYlz-30" value="" style="edgeStyle=none;curved=1;rounded=0;orthogonalLoop=1;jettySize=auto;html=1;fontSize=12;startSize=8;endSize=8;" edge="1" parent="1" source="XkeC98np7HwrWF6QXYlz-25" target="XkeC98np7HwrWF6QXYlz-29">
          <mxGeometry relative="1" as="geometry" />
        </mxCell>
        <mxCell id="XkeC98np7HwrWF6QXYlz-25" value="多巴" style="text;html=1;align=center;verticalAlign=middle;resizable=0;points=[];autosize=1;strokeColor=none;fillColor=none;fontSize=16;" vertex="1" parent="1">
          <mxGeometry x="305" y="740" width="60" height="30" as="geometry" />
        </mxCell>
        <mxCell id="XkeC98np7HwrWF6QXYlz-50" style="edgeStyle=orthogonalEdgeStyle;rounded=0;orthogonalLoop=1;jettySize=auto;html=1;fontSize=12;startSize=8;endSize=8;dashed=1;" edge="1" parent="1" source="XkeC98np7HwrWF6QXYlz-27" target="XkeC98np7HwrWF6QXYlz-47">
          <mxGeometry relative="1" as="geometry">
            <mxPoint x="700" y="707.5" as="targetPoint" />
          </mxGeometry>
        </mxCell>
        <mxCell id="XkeC98np7HwrWF6QXYlz-52" value="Text" style="edgeLabel;html=1;align=center;verticalAlign=middle;resizable=0;points=[];fontSize=16;" vertex="1" connectable="0" parent="XkeC98np7HwrWF6QXYlz-50">
          <mxGeometry x="-0.1936" y="-4" relative="1" as="geometry">
            <mxPoint x="27" as="offset" />
          </mxGeometry>
        </mxCell>
        <mxCell id="XkeC98np7HwrWF6QXYlz-53" value="缺乏" style="edgeLabel;html=1;align=center;verticalAlign=middle;resizable=0;points=[];fontSize=16;" vertex="1" connectable="0" parent="XkeC98np7HwrWF6QXYlz-50">
          <mxGeometry x="-0.0805" y="-6" relative="1" as="geometry">
            <mxPoint y="-3" as="offset" />
          </mxGeometry>
        </mxCell>
        <mxCell id="XkeC98np7HwrWF6QXYlz-27" value="X 酶" style="text;html=1;align=center;verticalAlign=middle;resizable=0;points=[];autosize=1;strokeColor=#d79b00;fillColor=#ffe6cc;fontSize=16;rounded=1;" vertex="1" parent="1">
          <mxGeometry x="200" y="692.5" width="50" height="30" as="geometry" />
        </mxCell>
        <mxCell id="XkeC98np7HwrWF6QXYlz-32" value="" style="edgeStyle=none;curved=1;rounded=0;orthogonalLoop=1;jettySize=auto;html=1;fontSize=12;startSize=8;endSize=8;" edge="1" parent="1" source="XkeC98np7HwrWF6QXYlz-29" target="XkeC98np7HwrWF6QXYlz-31">
          <mxGeometry relative="1" as="geometry" />
        </mxCell>
        <mxCell id="XkeC98np7HwrWF6QXYlz-29" value="..." style="text;html=1;align=center;verticalAlign=middle;resizable=0;points=[];autosize=1;strokeColor=none;fillColor=none;fontSize=16;" vertex="1" parent="1">
          <mxGeometry x="405" y="740" width="40" height="30" as="geometry" />
        </mxCell>
        <mxCell id="XkeC98np7HwrWF6QXYlz-55" style="edgeStyle=none;curved=1;rounded=0;orthogonalLoop=1;jettySize=auto;html=1;fontSize=12;startSize=8;endSize=8;dashed=1;" edge="1" parent="1" source="XkeC98np7HwrWF6QXYlz-31" target="XkeC98np7HwrWF6QXYlz-47">
          <mxGeometry relative="1" as="geometry" />
        </mxCell>
        <mxCell id="XkeC98np7HwrWF6QXYlz-56" value="减少" style="edgeLabel;html=1;align=center;verticalAlign=middle;resizable=0;points=[];fontSize=16;" vertex="1" connectable="0" parent="XkeC98np7HwrWF6QXYlz-55">
          <mxGeometry x="-0.2393" y="2" relative="1" as="geometry">
            <mxPoint as="offset" />
          </mxGeometry>
        </mxCell>
        <mxCell id="XkeC98np7HwrWF6QXYlz-31" value="黑色素" style="text;html=1;align=center;verticalAlign=middle;resizable=0;points=[];autosize=1;strokeColor=none;fillColor=none;fontSize=16;" vertex="1" parent="1">
          <mxGeometry x="515" y="740" width="70" height="30" as="geometry" />
        </mxCell>
        <mxCell id="XkeC98np7HwrWF6QXYlz-37" value="" style="edgeStyle=none;curved=1;rounded=0;orthogonalLoop=1;jettySize=auto;html=1;fontSize=12;startSize=8;endSize=8;" edge="1" parent="1" source="XkeC98np7HwrWF6QXYlz-33" target="XkeC98np7HwrWF6QXYlz-36">
          <mxGeometry relative="1" as="geometry" />
        </mxCell>
        <mxCell id="XkeC98np7HwrWF6QXYlz-33" value="对羟苯丙酮酸" style="text;html=1;align=center;verticalAlign=middle;resizable=0;points=[];autosize=1;fontSize=16;" vertex="1" parent="1">
          <mxGeometry x="65" y="740" width="120" height="30" as="geometry" />
        </mxCell>
        <mxCell id="XkeC98np7HwrWF6QXYlz-35" value="X 转氨酶" style="text;html=1;align=center;verticalAlign=middle;resizable=0;points=[];autosize=1;strokeColor=#d79b00;fillColor=#ffe6cc;fontSize=16;rounded=1;" vertex="1" parent="1">
          <mxGeometry x="30" y="692.5" width="90" height="30" as="geometry" />
        </mxCell>
        <mxCell id="XkeC98np7HwrWF6QXYlz-39" value="" style="edgeStyle=none;curved=1;rounded=0;orthogonalLoop=1;jettySize=auto;html=1;fontSize=12;startSize=8;endSize=8;" edge="1" parent="1" source="XkeC98np7HwrWF6QXYlz-41" target="XkeC98np7HwrWF6QXYlz-38">
          <mxGeometry relative="1" as="geometry" />
        </mxCell>
        <mxCell id="XkeC98np7HwrWF6QXYlz-46" value="" style="edgeStyle=none;curved=1;rounded=0;orthogonalLoop=1;jettySize=auto;html=1;fontSize=12;startSize=8;endSize=8;dashed=1;endArrow=classic;endFill=1;" edge="1" parent="1" source="XkeC98np7HwrWF6QXYlz-36" target="XkeC98np7HwrWF6QXYlz-45">
          <mxGeometry relative="1" as="geometry" />
        </mxCell>
        <mxCell id="XkeC98np7HwrWF6QXYlz-36" value="尿黑酸" style="text;html=1;align=center;verticalAlign=middle;resizable=0;points=[];autosize=1;fontSize=16;" vertex="1" parent="1">
          <mxGeometry x="90" y="820" width="70" height="30" as="geometry" />
        </mxCell>
        <mxCell id="XkeC98np7HwrWF6QXYlz-44" value="" style="edgeStyle=none;curved=1;rounded=0;orthogonalLoop=1;jettySize=auto;html=1;fontSize=12;startSize=8;endSize=8;" edge="1" parent="1" source="XkeC98np7HwrWF6QXYlz-38" target="XkeC98np7HwrWF6QXYlz-43">
          <mxGeometry relative="1" as="geometry" />
        </mxCell>
        <mxCell id="XkeC98np7HwrWF6QXYlz-38" value="延胡索酸" style="text;html=1;align=center;verticalAlign=middle;resizable=0;points=[];autosize=1;fontSize=16;" vertex="1" parent="1">
          <mxGeometry x="290" y="820" width="90" height="30" as="geometry" />
        </mxCell>
        <mxCell id="XkeC98np7HwrWF6QXYlz-42" value="" style="edgeStyle=none;curved=1;rounded=0;orthogonalLoop=1;jettySize=auto;html=1;fontSize=12;startSize=8;endSize=8;" edge="1" parent="1" source="XkeC98np7HwrWF6QXYlz-36" target="XkeC98np7HwrWF6QXYlz-41">
          <mxGeometry relative="1" as="geometry">
            <mxPoint x="160" y="835" as="sourcePoint" />
            <mxPoint x="290" y="835" as="targetPoint" />
          </mxGeometry>
        </mxCell>
        <mxCell id="XkeC98np7HwrWF6QXYlz-41" value="..." style="text;html=1;align=center;verticalAlign=middle;resizable=0;points=[];autosize=1;strokeColor=none;fillColor=none;fontSize=16;" vertex="1" parent="1">
          <mxGeometry x="205" y="820" width="40" height="30" as="geometry" />
        </mxCell>
        <mxCell id="XkeC98np7HwrWF6QXYlz-43" value="乙酰乙酸" style="text;html=1;align=center;verticalAlign=middle;resizable=0;points=[];autosize=1;fontSize=16;" vertex="1" parent="1">
          <mxGeometry x="425" y="820" width="90" height="30" as="geometry" />
        </mxCell>
        <mxCell id="XkeC98np7HwrWF6QXYlz-45" value="尿黑酸尿症" style="text;html=1;align=center;verticalAlign=middle;resizable=0;points=[];autosize=1;fontSize=16;fillColor=#f8cecc;strokeColor=#b85450;" vertex="1" parent="1">
          <mxGeometry x="-55" y="820" width="100" height="30" as="geometry" />
        </mxCell>
        <mxCell id="XkeC98np7HwrWF6QXYlz-47" value="白化病" style="text;html=1;align=center;verticalAlign=middle;resizable=0;points=[];autosize=1;strokeColor=#b85450;fillColor=#f8cecc;fontSize=16;" vertex="1" parent="1">
          <mxGeometry x="660" y="740" width="70" height="30" as="geometry" />
        </mxCell>
        <mxCell id="XkeC98np7HwrWF6QXYlz-57" value="帕金森病" style="text;html=1;align=center;verticalAlign=middle;resizable=0;points=[];autosize=1;strokeColor=#b85450;fillColor=#f8cecc;fontSize=16;" vertex="1" parent="1">
          <mxGeometry x="510" y="560" width="90" height="30" as="geometry" />
        </mxCell>
        <mxCell id="XkeC98np7HwrWF6QXYlz-60" value="儿茶酚胺" style="text;html=1;align=center;verticalAlign=middle;resizable=0;points=[];autosize=1;strokeColor=none;fillColor=none;fontSize=16;" vertex="1" parent="1">
          <mxGeometry x="740" y="650" width="90" height="30" as="geometry" />
        </mxCell>
      </root>
    </mxGraphModel>
  </diagram>
</mxfile>
